<svg width="25" height="24" viewBox="0 0 25 24" fill="none" xmlns="http://www.w3.org/2000/svg">
<g clip-path="url(#clip0_1810_3536)">
<path d="M22.292 18.7035C21.929 19.542 21.4994 20.3139 21.0016 21.0235C20.3231 21.9908 19.7676 22.6605 19.3395 23.0323C18.6758 23.6426 17.9647 23.9552 17.2032 23.973C16.6566 23.973 15.9973 23.8175 15.23 23.5019C14.4601 23.1878 13.7525 23.0323 13.1056 23.0323C12.4271 23.0323 11.6994 23.1878 10.9211 23.5019C10.1415 23.8175 9.51355 23.9819 9.03342 23.9982C8.30322 24.0293 7.57539 23.7078 6.8489 23.0323C6.38521 22.6279 5.80523 21.9345 5.11043 20.9524C4.36498 19.9035 3.75211 18.6872 3.27198 17.3006C2.75777 15.8029 2.5 14.3526 2.5 12.9484C2.5 11.3401 2.84754 9.95284 3.54367 8.79035C4.09076 7.8566 4.81859 7.12003 5.72953 6.57931C6.64046 6.03858 7.62473 5.76304 8.68469 5.74541C9.26467 5.74541 10.0252 5.92481 10.9704 6.27739C11.9129 6.63116 12.5181 6.81056 12.7834 6.81056C12.9817 6.81056 13.654 6.60079 14.7937 6.18258C15.8714 5.79474 16.781 5.63415 17.5262 5.69741C19.5454 5.86037 21.0624 6.65634 22.0712 8.09037C20.2654 9.18456 19.3721 10.7171 19.3898 12.6831C19.4061 14.2145 19.9617 15.4888 21.0535 16.5006C21.5483 16.9703 22.1009 17.3332 22.7156 17.591C22.5823 17.9776 22.4416 18.348 22.292 18.7035ZM17.661 0.480381C17.661 1.68066 17.2225 2.80135 16.3484 3.83865C15.2937 5.0718 14.0179 5.78437 12.6343 5.67193C12.6167 5.52793 12.6065 5.37638 12.6065 5.21713C12.6065 4.06487 13.1081 2.83172 13.9989 1.82345C14.4436 1.31295 15.0092 0.888472 15.6951 0.54986C16.3796 0.216299 17.0269 0.0318332 17.6358 0.000244141C17.6536 0.160702 17.661 0.32117 17.661 0.480365V0.480381Z" fill="black"/>
</g>
<defs>
<clipPath id="clip0_1810_3536">
<rect width="24" height="24" fill="white" transform="translate(0.5)"/>
</clipPath>
</defs>
</svg>
