<svg width="20" height="20" viewBox="0 0 20 20" fill="none" xmlns="http://www.w3.org/2000/svg">
<g clip-path="url(#clip0_667_5975)">
<path d="M1.66699 16.667H18.3337V18.3337H1.66699V16.667ZM3.33366 10.0003H5.00033V15.8337H3.33366V10.0003ZM7.50033 10.0003H9.16699V15.8337H7.50033V10.0003ZM10.8337 10.0003H12.5003V15.8337H10.8337V10.0003ZM15.0003 10.0003H16.667V15.8337H15.0003V10.0003ZM1.66699 5.83366L10.0003 1.66699L18.3337 5.83366V9.16699H1.66699V5.83366ZM3.33366 6.86366V7.50033H16.667V6.86366L10.0003 3.53033L3.33366 6.86366ZM10.0003 6.66699C9.77931 6.66699 9.56735 6.5792 9.41107 6.42291C9.25479 6.26663 9.16699 6.05467 9.16699 5.83366C9.16699 5.61265 9.25479 5.40068 9.41107 5.2444C9.56735 5.08812 9.77931 5.00033 10.0003 5.00033C10.2213 5.00033 10.4333 5.08812 10.5896 5.2444C10.7459 5.40068 10.8337 5.61265 10.8337 5.83366C10.8337 6.05467 10.7459 6.26663 10.5896 6.42291C10.4333 6.5792 10.2213 6.66699 10.0003 6.66699Z" fill="#E4E4E7"/>
</g>
<defs>
<clipPath id="clip0_667_5975">
<rect width="20" height="20" fill="white"/>
</clipPath>
</defs>
</svg>
