<svg width="22" height="22" viewBox="0 0 22 22" fill="none" xmlns="http://www.w3.org/2000/svg">
<g clip-path="url(#clip0_667_5487)">
<path d="M15.5835 2.75033H19.2502C19.4933 2.75033 19.7264 2.8469 19.8983 3.01881C20.0703 3.19072 20.1668 3.42388 20.1668 3.66699V18.3337C20.1668 18.5768 20.0703 18.8099 19.8983 18.9818C19.7264 19.1537 19.4933 19.2503 19.2502 19.2503H2.75016C2.50705 19.2503 2.27389 19.1537 2.10198 18.9818C1.93007 18.8099 1.8335 18.5768 1.8335 18.3337V3.66699C1.8335 3.42388 1.93007 3.19072 2.10198 3.01881C2.27389 2.8469 2.50705 2.75033 2.75016 2.75033H6.41683V0.916992H8.25016V2.75033H13.7502V0.916992H15.5835V2.75033ZM13.7502 4.58366H8.25016V6.41699H6.41683V4.58366H3.66683V8.25033H18.3335V4.58366H15.5835V6.41699H13.7502V4.58366ZM18.3335 10.0837H3.66683V17.417H18.3335V10.0837Z" fill="#B3F9AB"/>
</g>
<defs>
<clipPath id="clip0_667_5487">
<rect width="22" height="22" fill="white"/>
</clipPath>
</defs>
</svg>
