<svg width="24" height="24" viewBox="0 0 24 24" fill="none" xmlns="http://www.w3.org/2000/svg">
<g id="Group">
<path id="Vector" d="M12 18.4847L16.243 14.2427C17.082 13.4036 17.6534 12.3345 17.8848 11.1706C18.1162 10.0067 17.9973 8.80039 17.5432 7.70409C17.089 6.60779 16.32 5.67078 15.3333 5.01154C14.3466 4.3523 13.1866 4.00043 12 4.00043C10.8134 4.00043 9.65336 4.3523 8.66669 5.01154C7.68002 5.67078 6.91098 6.60779 6.45682 7.70409C6.00267 8.80039 5.88379 10.0067 6.11522 11.1706C6.34665 12.3345 6.91799 13.4036 7.757 14.2427L12 18.4847ZM17.657 15.6567L12 21.3137L6.343 15.6567C5.22422 14.5379 4.46234 13.1124 4.15369 11.5606C3.84504 10.0087 4.00349 8.40022 4.60901 6.93844C5.21452 5.47665 6.2399 4.22725 7.55548 3.34821C8.87107 2.46918 10.4178 2 12 2C13.5822 2 15.1289 2.46918 16.4445 3.34821C17.7601 4.22725 18.7855 5.47665 19.391 6.93844C19.9965 8.40022 20.155 10.0087 19.8463 11.5606C19.5377 13.1124 18.7758 14.5379 17.657 15.6567ZM5 21.9997H19V23.9997H5V21.9997Z" fill="#F26850"/>
</g>
</svg>
