<svg width="25" height="24" viewBox="0 0 25 24" fill="none" xmlns="http://www.w3.org/2000/svg">
<path d="M12.7142 10.0909V14.1572H18.4805C18.2273 15.465 17.4675 16.5723 16.3279 17.3168L19.8052 19.9609C21.8311 18.1283 23 15.4364 23 12.2387C23 11.4942 22.9318 10.7782 22.8052 10.091L12.7142 10.0909Z" fill="#4285F4"/>
<path d="M6.70958 13.9985L5.92532 14.5868L3.14927 16.7059C4.91227 20.1327 8.52568 22.5 12.714 22.5C15.6068 22.5 18.0324 21.5645 19.8052 19.9609L16.3279 17.3168C15.3733 17.9468 14.1555 18.3287 12.714 18.3287C9.92827 18.3287 7.56144 16.4864 6.71396 14.0046L6.70958 13.9985Z" fill="#34A853"/>
<path d="M3.14928 7.29409C2.41879 8.70676 2 10.3009 2 11.9999C2 13.699 2.41878 15.2932 3.14927 16.7059C3.14927 16.7154 6.71431 13.9949 6.71431 13.9949C6.50003 13.3649 6.37337 12.6967 6.37337 11.9998C6.37337 11.3029 6.50003 10.6348 6.71431 10.0048L3.14928 7.29409Z" fill="#FBBC05"/>
<path d="M12.7142 5.68091C14.2922 5.68091 15.6948 6.21544 16.8149 7.24636L19.8831 4.23958C18.0227 2.54052 15.6071 1.5 12.7142 1.5C8.5259 1.5 4.91228 3.85772 3.14928 7.29409L6.71431 10.0048C7.56167 7.52294 9.92849 5.68091 12.7142 5.68091Z" fill="#EA4335"/>
</svg>
