<svg width="24" height="24" viewBox="0 0 24 24" fill="none" xmlns="http://www.w3.org/2000/svg">
<g clip-path="url(#clip0_188_5819)">
<path d="M12 18.485L16.243 14.243C17.082 13.4038 17.6534 12.3347 17.8848 11.1708C18.1162 10.007 17.9973 8.80063 17.5432 7.70434C17.089 6.60804 16.32 5.67103 15.3333 5.01178C14.3466 4.35254 13.1866 4.00067 12 4.00067C10.8134 4.00067 9.65336 4.35254 8.66669 5.01178C7.68002 5.67103 6.91098 6.60804 6.45682 7.70434C6.00267 8.80063 5.88379 10.007 6.11522 11.1708C6.34665 12.3347 6.91799 13.4038 7.757 14.243L12 18.485ZM17.657 15.657L12 21.314L6.343 15.657C5.22422 14.5381 4.46234 13.1127 4.15369 11.5608C3.84504 10.009 4.00349 8.40047 4.60901 6.93868C5.21452 5.4769 6.2399 4.22749 7.55548 3.34846C8.87107 2.46943 10.4178 2.00024 12 2.00024C13.5822 2.00024 15.1289 2.46943 16.4445 3.34846C17.7601 4.22749 18.7855 5.4769 19.391 6.93868C19.9965 8.40047 20.155 10.009 19.8463 11.5608C19.5377 13.1127 18.7758 14.5381 17.657 15.657ZM5 22H19V24H5V22Z" fill="#52525B"/>
</g>
<defs>
<clipPath id="clip0_188_5819">
<rect width="24" height="24" fill="white"/>
</clipPath>
</defs>
</svg>
