<svg width="20" height="20" viewBox="0 0 20 20" fill="none" xmlns="http://www.w3.org/2000/svg">
<g clip-path="url(#clip0_667_5984)">
<path d="M9.99967 1.25C11.1005 1.25 12.0697 1.54 12.8722 2.07833C13.6747 2.61583 14.3105 3.40167 14.7463 4.39333C15.1813 5.385 15.4163 6.58083 15.4163 7.94083V12.0592C15.4163 13.4192 15.1813 14.6158 14.7463 15.6067C14.3105 16.5983 13.6747 17.3842 12.8713 17.9217C12.0697 18.46 11.1005 18.75 9.99967 18.75C8.89884 18.75 7.92968 18.46 7.12718 17.9217C6.32467 17.3842 5.68884 16.5983 5.25301 15.6067C4.81801 14.615 4.58301 13.4192 4.58301 12.0592V7.94083C4.58301 6.58083 4.81801 5.38417 5.25301 4.39333C5.68884 3.40167 6.32467 2.61583 7.12801 2.07833C7.92884 1.54 8.89801 1.25 9.99967 1.25ZM9.99967 2.91667C9.23634 2.91667 8.58801 3.105 8.05551 3.4625C7.52467 3.81833 7.09051 4.35417 6.77884 5.0625C6.43551 5.84583 6.24967 6.81917 6.24967 7.94083V12.0592C6.24967 13.1808 6.43551 14.1542 6.77884 14.9367C7.09051 15.6458 7.52467 16.1817 8.05551 16.5375C8.58801 16.895 9.23634 17.0833 9.99967 17.0833C10.763 17.0833 11.4113 16.895 11.9438 16.5375C12.4747 16.1817 12.9088 15.6458 13.2205 14.9375C13.5638 14.1542 13.7497 13.1808 13.7497 12.0592V7.94083C13.7497 6.81917 13.5638 5.84583 13.2205 5.06333C12.9088 4.35417 12.4747 3.81833 11.9438 3.4625C11.4113 3.105 10.763 2.91667 9.99967 2.91667Z" fill="#E4E4E7"/>
</g>
<defs>
<clipPath id="clip0_667_5984">
<rect width="20" height="20" fill="white"/>
</clipPath>
</defs>
</svg>
