<svg width="24" height="24" viewBox="0 0 24 24" fill="none" xmlns="http://www.w3.org/2000/svg">
<g clip-path="url(#clip0_12_5955)">
<path d="M12 22C6.477 22 2 17.523 2 12C2 6.47703 6.477 2.00003 12 2.00003C17.523 2.00003 22 6.47703 22 12C22 17.523 17.523 22 12 22ZM12 20C14.1217 20 16.1566 19.1572 17.6569 17.6569C19.1571 16.1566 20 14.1218 20 12C20 9.8783 19.1571 7.84347 17.6569 6.34318C16.1566 4.84289 14.1217 4.00003 12 4.00003C9.87827 4.00003 7.84344 4.84289 6.34315 6.34318C4.84285 7.84347 4 9.8783 4 12C4 14.1218 4.84285 16.1566 6.34315 17.6569C7.84344 19.1572 9.87827 20 12 20Z" fill="#A1A1AA"/>
</g>
<defs>
<clipPath id="clip0_12_5955">
<rect width="24" height="24" fill="white"/>
</clipPath>
</defs>
</svg>
