<svg width="22" height="22" viewBox="0 0 22 22" fill="none" xmlns="http://www.w3.org/2000/svg">
<g clip-path="url(#clip0_667_5489)">
<path d="M11.0002 1.83301C16.0629 1.83301 20.1668 5.93692 20.1668 10.9997C20.1668 16.0624 16.0629 20.1663 11.0002 20.1663C5.93741 20.1663 1.8335 16.0624 1.8335 10.9997C1.8335 5.93692 5.93741 1.83301 11.0002 1.83301ZM11.0002 3.66634C6.95033 3.66634 3.66683 6.94984 3.66683 10.9997C3.66683 15.0495 6.95033 18.333 11.0002 18.333C15.05 18.333 18.3335 15.0495 18.3335 10.9997C18.3335 6.94984 15.05 3.66634 11.0002 3.66634ZM11.0002 4.58301C11.9333 4.58301 12.8197 4.78192 13.62 5.14034L12.1872 6.57217C11.8087 6.47134 11.4108 6.41634 11.0002 6.41634C8.46925 6.41634 6.41683 8.46876 6.41683 10.9997C6.41683 12.2647 6.93016 13.4105 7.75883 14.241L6.46266 15.5372L6.31966 15.3896C5.2435 14.2419 4.5835 12.6973 4.5835 10.9997C4.5835 7.45584 7.45633 4.58301 11.0002 4.58301ZM16.8595 8.38076C17.217 9.18009 17.4168 10.0674 17.4168 10.9997C17.4168 12.7716 16.6982 14.3758 15.5377 15.5372L14.2415 14.241C15.0702 13.4105 15.5835 12.2647 15.5835 10.9997C15.5835 10.589 15.5294 10.1912 15.4277 9.81259L16.8595 8.38076ZM14.8887 5.81409L16.1857 7.11026L12.7721 10.5258C12.8124 10.677 12.8335 10.8356 12.8335 10.9997C12.8335 12.0126 12.0131 12.833 11.0002 12.833C9.98725 12.833 9.16683 12.0126 9.16683 10.9997C9.16683 9.98676 9.98725 9.16634 11.0002 9.16634C11.1642 9.16634 11.3228 9.18742 11.4741 9.22776L14.8896 5.81409H14.8887Z" fill="#FCA431"/>
</g>
<defs>
<clipPath id="clip0_667_5489">
<rect width="22" height="22" fill="white"/>
</clipPath>
</defs>
</svg>
