<svg width="24" height="24" viewBox="0 0 24 24" fill="none" xmlns="http://www.w3.org/2000/svg">
<g clip-path="url(#clip0_18_725)">
<path d="M12 17C15.662 17 18.865 18.575 20.607 20.925L18.765 21.796C17.347 20.116 14.847 19 12 19C9.15301 19 6.65301 20.116 5.23501 21.796L3.39401 20.924C5.13601 18.574 8.33801 17 12 17ZM12 2C13.3261 2 14.5979 2.52678 15.5355 3.46447C16.4732 4.40215 17 5.67392 17 7V10C16.9999 11.2885 16.5025 12.5272 15.6114 13.4578C14.7202 14.3884 13.5043 14.9391 12.217 14.995L12 15C10.6739 15 9.40216 14.4732 8.46448 13.5355C7.5268 12.5979 7.00001 11.3261 7.00001 10V7C7.00009 5.71154 7.49755 4.47284 8.38867 3.54222C9.27979 2.61161 10.4958 2.06092 11.783 2.005L12 2ZM12 4C11.2348 3.99996 10.4985 4.29233 9.94175 4.81728C9.38501 5.34224 9.0499 6.06011 9.00501 6.824L9.00001 7V10C8.99926 10.7809 9.30303 11.5313 9.84678 12.0918C10.3905 12.6523 11.1314 12.9787 11.912 13.0016C12.6925 13.0245 13.4513 12.7422 14.027 12.2145C14.6027 11.6869 14.95 10.9556 14.995 10.176L15 10V7C15 6.20435 14.6839 5.44129 14.1213 4.87868C13.5587 4.31607 12.7957 4 12 4Z" fill="#52525B"/>
</g>
<defs>
<clipPath id="clip0_18_725">
<rect width="24" height="24" fill="white"/>
</clipPath>
</defs>
</svg>
