<svg width="32" height="32" viewBox="0 0 32 32" fill="none" xmlns="http://www.w3.org/2000/svg">
<g clip-path="url(#clip0_667_6073)">
<path d="M9.33325 27.975C7.51198 27.8352 5.78146 27.1234 4.38879 25.9415C2.99611 24.7595 2.0125 23.1678 1.57839 21.3935C1.14428 19.6192 1.28187 17.7531 1.97152 16.0616C2.66117 14.3702 3.86761 12.9399 5.41858 11.975C5.74859 9.40179 7.00498 7.03701 8.9526 5.32321C10.9002 3.60942 13.4056 2.66406 15.9999 2.66406C18.5942 2.66406 21.0996 3.60942 23.0472 5.32321C24.9948 7.03701 26.2512 9.40179 26.5812 11.975C28.1322 12.9399 29.3387 14.3702 30.0283 16.0616C30.718 17.7531 30.8555 19.6192 30.4214 21.3935C29.9873 23.1678 29.0037 24.7595 27.611 25.9415C26.2184 27.1234 24.4878 27.8352 22.6666 27.975V28.0003H9.33325V27.975ZM17.3332 17.3337H21.3332L15.9999 10.667L10.6666 17.3337H14.6666V22.667H17.3332V17.3337Z" fill="#FCA431"/>
</g>
<defs>
<clipPath id="clip0_667_6073">
<rect width="32" height="32" fill="white"/>
</clipPath>
</defs>
</svg>
