<svg width="32" height="32" viewBox="0 0 32 32" fill="none" xmlns="http://www.w3.org/2000/svg">
<g clip-path="url(#clip0_82_7012)">
<path d="M9.33334 27.975C7.51207 27.8352 5.78155 27.1234 4.38888 25.9415C2.99621 24.7595 2.01259 23.1678 1.57848 21.3935C1.14437 19.6192 1.28196 17.7531 1.97161 16.0616C2.66126 14.3702 3.8677 12.9399 5.41867 11.975C5.74869 9.40179 7.00507 7.03701 8.9527 5.32321C10.9003 3.60942 13.4057 2.66406 16 2.66406C18.5943 2.66406 21.0997 3.60942 23.0473 5.32321C24.9949 7.03701 26.2513 9.40179 26.5813 11.975C28.1323 12.9399 29.3387 14.3702 30.0284 16.0616C30.718 17.7531 30.8556 19.6192 30.4215 21.3935C29.9874 23.1678 29.0038 24.7595 27.6111 25.9415C26.2185 27.1234 24.4879 27.8352 22.6667 27.975V28.0003H9.33334V27.975ZM17.3333 17.3337H21.3333L16 10.667L10.6667 17.3337H14.6667V22.667H17.3333V17.3337Z" fill="#FCA431"/>
</g>
<defs>
<clipPath id="clip0_82_7012">
<rect width="32" height="32" fill="white"/>
</clipPath>
</defs>
</svg>
